 http://img850.imageshack.us/img850/3259/20110523094906503.jpg

Country.......: Australia
Genre.........: Horror, Thriller, Drama
Date release..: 2011 [World]
Director......: Carlo Ledesma
Writers.......: Enzo Tedeschi, Julian Harvey
Duration......: 91 min.
More..........: http://www.imdb.com/title/tt1735485
Trailer.......: http://www.imdb.com/video/wab/vi1930336793
Trailer.......:

Pilot :
An investigation into a government cover-up leads to a network of abandoned train tunnels deep beneath the heart of Sydney. As a journalist and her crew hunt for the story it quickly becomes clear the story is hunting them. 

Cats :
Bel Delia   	 ...  	Natasha
Andy Rodoreda 	... 	Peter
Steve Davis 	... 	Steve
Luke Arnold 	... 	Tangles
Goran D. Kleut 	... 	Stalker
James Caitlin 	... 	Trevor
Rebecca Clay 	... 	Emergency Operator (voice)
Jessica Fallico 	... 	Jess
Arianna Gusi 	... 	Kate
Ben James 	... 	Dez (voice)
Russell Jeffrey 	... 	Sef
Shannon Jones 	... 	Jane Schmidt
Renee Lim 	... 	Lisa Lung
Ben Maclaine 	... 	Security Guard
Peter McAllum 	... 	Government Minister

Data Technical :
!!! SAMPLE !!!
Audio.....: English
Subtitles.: English .srt
Format                           : AVI
Format/Info                      : Audio Video Interleave
File size                        : 817 MiB
Duration                         : 1h 31mn
Overall bit rate                 : 1 252 Kbps
Writing application              : MEncoder Sherpya-SVN-r32492-4.2.5
Writing library                  : MPlayer
Video
ID                               : 0
Format                           : MPEG-4 Visual
Format profile                   : Simple@L3
Format settings, BVOP            : No
Format settings, QPel            : No
Format settings, GMC             : No warppoints
Format settings, Matrix          : Default (H.263)
Codec ID                         : XVID
Codec ID/Hint                    : XviD
Duration                         : 1h 31mn
Bit rate                         : 1 016 Kbps
Width                            : 640 pixels
Height                           : 360 pixels
Display aspect ratio             : 16:9
Frame rate                       : 25.000 fps
Color space                      : YUV
Chroma subsampling               : 4:2:0
Bit depth                        : 8 bits
Scan type                        : Progressive
Bits/(Pixel*Frame)               : 0.176
Stream size                      : 663 MiB (81%)
Writing library                  : XviD 1.2.1 (UTC 2008-12-04)
Audio
ID                               : 1
Format                           : MPEG Audio
Format version                   : Version 1
Format profile                   : Layer 3
Mode                             : Joint stereo
Mode extension                   : MS Stereo
Codec ID                         : 55
Codec ID/Hint                    : MP3
Duration                         : 1h 31mn
Bit rate mode                    : Variable
Bit rate                         : 224 Kbps
Channel(s)                       : 2 channels
Sampling rate                    : 48.0 KHz
Stream size                      : 145 MiB (18%)
Alignment                        : Aligned on interleaves
Interleave, duration             : 24 ms (0.60 video frame)
Interleave, preload duration     : 669 ms

Screen : 
http://img846.imageshack.us/img846/2802/thetunnel2011s1.jpg 
http://img856.imageshack.us/img856/9597/thetunnel2011s2.jpg 
http://img600.imageshack.us/img600/6053/thetunnel2011s3.jpg 
http://img807.imageshack.us/img807/4671/thetunnel2011s4.jpg 
http://img714.imageshack.us/img714/4586/thetunnel2011s5.jpg